<mxfile host="Electron" agent="Mozilla/5.0 (X11; Linux x86_64) AppleWebKit/537.36 (KHTML, like Gecko) draw.io/26.0.9 Chrome/128.0.6613.186 Electron/32.3.0 Safari/537.36" version="26.0.9" pages="3">
  <diagram name="1" id="raGk_D8FTLXwgUmbc4jt">
    <mxGraphModel dx="378" dy="586" grid="1" gridSize="10" guides="1" tooltips="1" connect="1" arrows="1" fold="1" page="1" pageScale="1" pageWidth="300" pageHeight="180" math="0" shadow="0">
      <root>
        <mxCell id="0" />
        <mxCell id="1" parent="0" />
        <mxCell id="jTd84X1G22GfpIwI3Wmg-1" style="edgeStyle=orthogonalEdgeStyle;rounded=0;orthogonalLoop=1;jettySize=auto;html=1;exitX=1;exitY=0.5;exitDx=0;exitDy=0;entryX=0;entryY=0.5;entryDx=0;entryDy=0;fillColor=#f5f5f5;strokeColor=#666666;strokeWidth=2;" parent="1" source="zCmTgFsGxIaxcytd8qIg-1" target="zCmTgFsGxIaxcytd8qIg-2" edge="1">
          <mxGeometry relative="1" as="geometry" />
        </mxCell>
        <mxCell id="4P6gD7gl7ihGxnoUYtOj-1" style="edgeStyle=orthogonalEdgeStyle;rounded=0;orthogonalLoop=1;jettySize=auto;html=1;exitX=0.25;exitY=0;exitDx=0;exitDy=0;entryX=0.75;entryY=0;entryDx=0;entryDy=0;fillColor=#dae8fc;strokeColor=#6c8ebf;" edge="1" parent="1" source="zCmTgFsGxIaxcytd8qIg-1" target="zCmTgFsGxIaxcytd8qIg-2">
          <mxGeometry relative="1" as="geometry">
            <Array as="points">
              <mxPoint x="50" y="40" />
              <mxPoint x="130" y="40" />
            </Array>
          </mxGeometry>
        </mxCell>
        <mxCell id="zCmTgFsGxIaxcytd8qIg-1" value="1" style="text;html=1;align=center;verticalAlign=middle;whiteSpace=wrap;rounded=0;fillColor=#dae8fc;strokeColor=#6c8ebf;fontSize=14;fontColor=#333333;" parent="1" vertex="1">
          <mxGeometry x="40" y="80" width="40" height="40" as="geometry" />
        </mxCell>
        <mxCell id="jTd84X1G22GfpIwI3Wmg-2" style="edgeStyle=orthogonalEdgeStyle;rounded=0;orthogonalLoop=1;jettySize=auto;html=1;exitX=1;exitY=0.5;exitDx=0;exitDy=0;entryX=0;entryY=0.5;entryDx=0;entryDy=0;fillColor=#f5f5f5;strokeColor=#666666;strokeWidth=2;" parent="1" source="zCmTgFsGxIaxcytd8qIg-2" target="zCmTgFsGxIaxcytd8qIg-3" edge="1">
          <mxGeometry relative="1" as="geometry">
            <mxPoint x="180" y="100" as="sourcePoint" />
          </mxGeometry>
        </mxCell>
        <mxCell id="4P6gD7gl7ihGxnoUYtOj-2" style="edgeStyle=orthogonalEdgeStyle;rounded=0;orthogonalLoop=1;jettySize=auto;html=1;exitX=0.25;exitY=0;exitDx=0;exitDy=0;entryX=0.75;entryY=0;entryDx=0;entryDy=0;fillColor=#d5e8d4;strokeColor=#82b366;" edge="1" parent="1" source="zCmTgFsGxIaxcytd8qIg-2" target="zCmTgFsGxIaxcytd8qIg-1">
          <mxGeometry relative="1" as="geometry" />
        </mxCell>
        <mxCell id="zCmTgFsGxIaxcytd8qIg-2" value="2" style="text;html=1;align=center;verticalAlign=middle;whiteSpace=wrap;rounded=0;fillColor=#d5e8d4;strokeColor=#82b366;fontSize=14;fontColor=#333333;" parent="1" vertex="1">
          <mxGeometry x="100" y="80" width="40" height="40" as="geometry" />
        </mxCell>
        <mxCell id="jTd84X1G22GfpIwI3Wmg-3" style="edgeStyle=orthogonalEdgeStyle;rounded=0;orthogonalLoop=1;jettySize=auto;html=1;exitX=1;exitY=0.5;exitDx=0;exitDy=0;entryX=0;entryY=0.5;entryDx=0;entryDy=0;fillColor=#f5f5f5;strokeColor=#666666;strokeWidth=2;" parent="1" source="zCmTgFsGxIaxcytd8qIg-3" target="zCmTgFsGxIaxcytd8qIg-4" edge="1">
          <mxGeometry relative="1" as="geometry" />
        </mxCell>
        <mxCell id="zCmTgFsGxIaxcytd8qIg-3" value="3" style="text;html=1;align=center;verticalAlign=middle;whiteSpace=wrap;rounded=0;fillColor=#f5f5f5;strokeColor=#666666;fontSize=14;fontColor=#333333;" parent="1" vertex="1">
          <mxGeometry x="160" y="80" width="40" height="40" as="geometry" />
        </mxCell>
        <mxCell id="zCmTgFsGxIaxcytd8qIg-4" value="4" style="text;html=1;align=center;verticalAlign=middle;whiteSpace=wrap;rounded=0;fillColor=#f5f5f5;strokeColor=#666666;fontSize=14;fontColor=#333333;" parent="1" vertex="1">
          <mxGeometry x="220" y="80" width="40" height="40" as="geometry" />
        </mxCell>
        <mxCell id="AQBsLTuEEX6UYwU5JBV7-1" value="head" style="text;html=1;align=center;verticalAlign=middle;whiteSpace=wrap;rounded=0;fontSize=10;" parent="1" vertex="1">
          <mxGeometry x="40" y="120" width="220" height="20" as="geometry" />
        </mxCell>
      </root>
    </mxGraphModel>
  </diagram>
  <diagram name="2" id="n02TA-XEPyA4-N1CgCUU">
    <mxGraphModel dx="378" dy="586" grid="1" gridSize="10" guides="1" tooltips="1" connect="1" arrows="1" fold="1" page="1" pageScale="1" pageWidth="300" pageHeight="180" math="0" shadow="0">
      <root>
        <mxCell id="N_7dH_mJ0yj0iahWyi_h-0" />
        <mxCell id="N_7dH_mJ0yj0iahWyi_h-1" parent="N_7dH_mJ0yj0iahWyi_h-0" />
        <mxCell id="N_7dH_mJ0yj0iahWyi_h-2" style="edgeStyle=orthogonalEdgeStyle;rounded=0;orthogonalLoop=1;jettySize=auto;html=1;exitX=1;exitY=0.5;exitDx=0;exitDy=0;entryX=0;entryY=0.5;entryDx=0;entryDy=0;fillColor=#f5f5f5;strokeColor=#666666;strokeWidth=2;" edge="1" parent="N_7dH_mJ0yj0iahWyi_h-1" source="N_7dH_mJ0yj0iahWyi_h-4" target="N_7dH_mJ0yj0iahWyi_h-7">
          <mxGeometry relative="1" as="geometry" />
        </mxCell>
        <mxCell id="N_7dH_mJ0yj0iahWyi_h-4" value="2" style="text;html=1;align=center;verticalAlign=middle;whiteSpace=wrap;rounded=0;fillColor=#f5f5f5;strokeColor=#666666;fontSize=14;fontColor=#333333;" vertex="1" parent="N_7dH_mJ0yj0iahWyi_h-1">
          <mxGeometry x="40" y="80" width="40" height="40" as="geometry" />
        </mxCell>
        <mxCell id="N_7dH_mJ0yj0iahWyi_h-5" style="edgeStyle=orthogonalEdgeStyle;rounded=0;orthogonalLoop=1;jettySize=auto;html=1;exitX=1;exitY=0.5;exitDx=0;exitDy=0;entryX=0;entryY=0.5;entryDx=0;entryDy=0;fillColor=#f5f5f5;strokeColor=#666666;strokeWidth=2;" edge="1" parent="N_7dH_mJ0yj0iahWyi_h-1" source="N_7dH_mJ0yj0iahWyi_h-7" target="N_7dH_mJ0yj0iahWyi_h-9">
          <mxGeometry relative="1" as="geometry">
            <mxPoint x="180" y="100" as="sourcePoint" />
          </mxGeometry>
        </mxCell>
        <mxCell id="N_7dH_mJ0yj0iahWyi_h-7" value="1" style="text;html=1;align=center;verticalAlign=middle;whiteSpace=wrap;rounded=0;fillColor=#f5f5f5;strokeColor=#666666;fontSize=14;fontColor=#333333;" vertex="1" parent="N_7dH_mJ0yj0iahWyi_h-1">
          <mxGeometry x="100" y="80" width="40" height="40" as="geometry" />
        </mxCell>
        <mxCell id="N_7dH_mJ0yj0iahWyi_h-8" style="edgeStyle=orthogonalEdgeStyle;rounded=0;orthogonalLoop=1;jettySize=auto;html=1;exitX=1;exitY=0.5;exitDx=0;exitDy=0;entryX=0;entryY=0.5;entryDx=0;entryDy=0;fillColor=#f5f5f5;strokeColor=#666666;strokeWidth=2;" edge="1" parent="N_7dH_mJ0yj0iahWyi_h-1" source="N_7dH_mJ0yj0iahWyi_h-9" target="N_7dH_mJ0yj0iahWyi_h-10">
          <mxGeometry relative="1" as="geometry" />
        </mxCell>
        <mxCell id="K6DHQFv6t88DWqfwvsSS-1" style="edgeStyle=orthogonalEdgeStyle;rounded=0;orthogonalLoop=1;jettySize=auto;html=1;exitX=0.25;exitY=0;exitDx=0;exitDy=0;entryX=0.75;entryY=0;entryDx=0;entryDy=0;fillColor=#dae8fc;strokeColor=#6c8ebf;" edge="1" parent="N_7dH_mJ0yj0iahWyi_h-1" source="N_7dH_mJ0yj0iahWyi_h-9" target="N_7dH_mJ0yj0iahWyi_h-10">
          <mxGeometry relative="1" as="geometry">
            <Array as="points">
              <mxPoint x="170" y="40" />
              <mxPoint x="250" y="40" />
            </Array>
          </mxGeometry>
        </mxCell>
        <mxCell id="N_7dH_mJ0yj0iahWyi_h-9" value="3" style="text;html=1;align=center;verticalAlign=middle;whiteSpace=wrap;rounded=0;fillColor=#dae8fc;strokeColor=#6c8ebf;fontSize=14;fontColor=#333333;" vertex="1" parent="N_7dH_mJ0yj0iahWyi_h-1">
          <mxGeometry x="160" y="80" width="40" height="40" as="geometry" />
        </mxCell>
        <mxCell id="K6DHQFv6t88DWqfwvsSS-0" style="edgeStyle=orthogonalEdgeStyle;rounded=0;orthogonalLoop=1;jettySize=auto;html=1;exitX=0.25;exitY=0;exitDx=0;exitDy=0;entryX=0.75;entryY=0;entryDx=0;entryDy=0;fillColor=#d5e8d4;strokeColor=#82b366;" edge="1" parent="N_7dH_mJ0yj0iahWyi_h-1" source="N_7dH_mJ0yj0iahWyi_h-10" target="N_7dH_mJ0yj0iahWyi_h-9">
          <mxGeometry relative="1" as="geometry" />
        </mxCell>
        <mxCell id="N_7dH_mJ0yj0iahWyi_h-10" value="4" style="text;html=1;align=center;verticalAlign=middle;whiteSpace=wrap;rounded=0;fillColor=#d5e8d4;strokeColor=#82b366;fontSize=14;fontColor=#333333;" vertex="1" parent="N_7dH_mJ0yj0iahWyi_h-1">
          <mxGeometry x="220" y="80" width="40" height="40" as="geometry" />
        </mxCell>
        <mxCell id="N_7dH_mJ0yj0iahWyi_h-11" value="head" style="text;html=1;align=center;verticalAlign=middle;whiteSpace=wrap;rounded=0;fontSize=10;" vertex="1" parent="N_7dH_mJ0yj0iahWyi_h-1">
          <mxGeometry x="40" y="120" width="220" height="20" as="geometry" />
        </mxCell>
      </root>
    </mxGraphModel>
  </diagram>
  <diagram name="3" id="LMiiQE3riKcKv7OsANT_">
    <mxGraphModel dx="454" dy="703" grid="1" gridSize="10" guides="1" tooltips="1" connect="1" arrows="1" fold="1" page="1" pageScale="1" pageWidth="300" pageHeight="140" math="0" shadow="0">
      <root>
        <mxCell id="5WghANiZArzuJ98HwECp-0" />
        <mxCell id="5WghANiZArzuJ98HwECp-1" parent="5WghANiZArzuJ98HwECp-0" />
        <mxCell id="5WghANiZArzuJ98HwECp-2" style="edgeStyle=orthogonalEdgeStyle;rounded=0;orthogonalLoop=1;jettySize=auto;html=1;exitX=1;exitY=0.5;exitDx=0;exitDy=0;entryX=0;entryY=0.5;entryDx=0;entryDy=0;fillColor=#f5f5f5;strokeColor=#666666;strokeWidth=2;" edge="1" parent="5WghANiZArzuJ98HwECp-1" source="5WghANiZArzuJ98HwECp-3" target="5WghANiZArzuJ98HwECp-5">
          <mxGeometry relative="1" as="geometry" />
        </mxCell>
        <mxCell id="5WghANiZArzuJ98HwECp-3" value="2" style="text;html=1;align=center;verticalAlign=middle;whiteSpace=wrap;rounded=0;fillColor=#f5f5f5;strokeColor=#666666;fontSize=14;fontColor=#333333;" vertex="1" parent="5WghANiZArzuJ98HwECp-1">
          <mxGeometry x="40" y="40" width="40" height="40" as="geometry" />
        </mxCell>
        <mxCell id="5WghANiZArzuJ98HwECp-4" style="edgeStyle=orthogonalEdgeStyle;rounded=0;orthogonalLoop=1;jettySize=auto;html=1;exitX=1;exitY=0.5;exitDx=0;exitDy=0;entryX=0;entryY=0.5;entryDx=0;entryDy=0;fillColor=#f5f5f5;strokeColor=#666666;strokeWidth=2;" edge="1" parent="5WghANiZArzuJ98HwECp-1" source="5WghANiZArzuJ98HwECp-5" target="5WghANiZArzuJ98HwECp-8">
          <mxGeometry relative="1" as="geometry">
            <mxPoint x="180" y="60" as="sourcePoint" />
          </mxGeometry>
        </mxCell>
        <mxCell id="5WghANiZArzuJ98HwECp-5" value="1" style="text;html=1;align=center;verticalAlign=middle;whiteSpace=wrap;rounded=0;fillColor=#f5f5f5;strokeColor=#666666;fontSize=14;fontColor=#333333;" vertex="1" parent="5WghANiZArzuJ98HwECp-1">
          <mxGeometry x="100" y="40" width="40" height="40" as="geometry" />
        </mxCell>
        <mxCell id="5WghANiZArzuJ98HwECp-6" style="edgeStyle=orthogonalEdgeStyle;rounded=0;orthogonalLoop=1;jettySize=auto;html=1;exitX=1;exitY=0.5;exitDx=0;exitDy=0;entryX=0;entryY=0.5;entryDx=0;entryDy=0;fillColor=#f5f5f5;strokeColor=#666666;strokeWidth=2;" edge="1" parent="5WghANiZArzuJ98HwECp-1" source="5WghANiZArzuJ98HwECp-8" target="5WghANiZArzuJ98HwECp-10">
          <mxGeometry relative="1" as="geometry" />
        </mxCell>
        <mxCell id="5WghANiZArzuJ98HwECp-8" value="4" style="text;html=1;align=center;verticalAlign=middle;whiteSpace=wrap;rounded=0;fillColor=#f5f5f5;strokeColor=#666666;fontSize=14;fontColor=#333333;" vertex="1" parent="5WghANiZArzuJ98HwECp-1">
          <mxGeometry x="160" y="40" width="40" height="40" as="geometry" />
        </mxCell>
        <mxCell id="5WghANiZArzuJ98HwECp-10" value="3" style="text;html=1;align=center;verticalAlign=middle;whiteSpace=wrap;rounded=0;fillColor=#f5f5f5;strokeColor=#666666;fontSize=14;fontColor=#333333;" vertex="1" parent="5WghANiZArzuJ98HwECp-1">
          <mxGeometry x="220" y="40" width="40" height="40" as="geometry" />
        </mxCell>
        <mxCell id="5WghANiZArzuJ98HwECp-11" value="head" style="text;html=1;align=center;verticalAlign=middle;whiteSpace=wrap;rounded=0;fontSize=10;" vertex="1" parent="5WghANiZArzuJ98HwECp-1">
          <mxGeometry x="40" y="80" width="220" height="20" as="geometry" />
        </mxCell>
      </root>
    </mxGraphModel>
  </diagram>
</mxfile>
